<svg width="133" height="67" viewBox="0 0 133 67" fill="none" xmlns="http://www.w3.org/2000/svg">
<g filter="url(#filter0_d_357_8286)">
<path d="M54.0554 7.00024H22.6851L7 33.5328L22.6851 60.0654H54.0554L69.7405 33.5328L54.0554 7.00024Z" fill="#08C46F" fill-opacity="0.1" shape-rendering="crispEdges"/>
<path d="M54.0554 7.00024H22.6851L7 33.5328L22.6851 60.0654H54.0554L69.7405 33.5328L54.0554 7.00024Z" stroke="#08C46F" stroke-opacity="0.8" stroke-width="1.85111" shape-rendering="crispEdges"/>
</g>
<g filter="url(#filter1_d_357_8286)">
<path d="M29.0617 44.4556C25.9296 44.4556 23.6091 43.6343 22.1002 41.9918C20.5914 40.3302 19.837 37.7519 19.837 34.2568C19.837 27.4577 22.931 24.0581 29.119 24.0581C29.7684 24.0581 30.3987 24.1058 31.0098 24.2013C31.621 24.2968 32.1748 24.421 32.6714 24.5738C33.168 24.7266 33.5786 24.8984 33.9033 25.0894C34.3617 25.3568 34.5908 25.6051 34.5908 25.8343C34.5908 25.9871 34.5335 26.1972 34.419 26.4645C34.3044 26.7319 34.1707 26.9707 34.0179 27.1807C33.8842 27.3908 33.7505 27.4959 33.6168 27.4959C33.5213 27.4959 33.2921 27.3908 32.9292 27.1807C32.5855 26.9707 32.0985 26.7606 31.4682 26.5505C30.857 26.3404 30.0931 26.2354 29.1763 26.2354C26.8845 26.2354 25.1847 26.8752 24.077 28.1548C22.9883 29.4153 22.444 31.4589 22.444 34.2855C22.444 37.0357 22.9788 39.0602 24.0483 40.3589C25.137 41.6385 26.8081 42.2783 29.0617 42.2783C30.0549 42.2783 30.8857 42.1637 31.5541 41.9345C32.2417 41.6863 32.786 41.4475 33.1871 41.2183C33.6073 40.9701 33.8746 40.8459 33.9892 40.8459C34.1229 40.8459 34.2662 40.951 34.419 41.161C34.5717 41.3711 34.7054 41.6003 34.82 41.8486C34.9346 42.0969 34.9919 42.2783 34.9919 42.3929C34.9919 42.5266 34.906 42.6794 34.7341 42.8513C34.5813 43.0232 34.3617 43.1855 34.0752 43.3383C33.7314 43.5293 33.3017 43.7107 32.786 43.8826C32.2894 44.0545 31.726 44.1882 31.0958 44.2837C30.4655 44.3983 29.7875 44.4556 29.0617 44.4556ZM39.8948 44.341C39.1308 44.341 38.7489 44.1309 38.7489 43.7107V24.803C38.7489 24.3828 39.1308 24.1727 39.8948 24.1727H40.124C40.8879 24.1727 41.2699 24.3828 41.2699 24.803V32.9104H51.6405V24.803C51.6405 24.3828 52.0225 24.1727 52.7864 24.1727H53.0156C53.7796 24.1727 54.1616 24.3828 54.1616 24.803V43.7107C54.1616 44.1309 53.7796 44.341 53.0156 44.341H52.7864C52.0225 44.341 51.6405 44.1309 51.6405 43.7107V35.0876H41.2699V43.7107C41.2699 44.1309 40.8879 44.341 40.124 44.341H39.8948Z" fill="white"/>
</g>
<g filter="url(#filter2_d_357_8286)">
<path d="M82.0691 44.332C79.7008 44.332 77.9342 43.7113 76.7691 42.4699C75.6232 41.2285 75.0503 39.3282 75.0503 36.7689C75.0503 35.0691 75.2985 33.6463 75.7951 32.5004C76.3108 31.3544 77.0652 30.4854 78.0583 29.8934C79.0514 29.3013 80.2738 29.0053 81.7253 29.0053C83.0431 29.0053 84.1317 29.2918 84.9912 29.8647C85.8697 30.4377 86.5286 31.278 86.9679 32.3858C87.4072 33.4935 87.6268 34.8591 87.6268 36.4825C87.6268 36.597 87.5695 36.7498 87.4549 36.9408C87.3594 37.1127 87.2353 37.2751 87.0825 37.4278C86.9297 37.5806 86.796 37.657 86.6814 37.657H77.6286C77.7432 39.2422 78.1538 40.4072 78.8605 41.1521C79.5671 41.897 80.6271 42.2694 82.0404 42.2694C82.8808 42.2694 83.5874 42.1739 84.1604 41.9829C84.7524 41.7728 85.2204 41.5723 85.5641 41.3813C85.9079 41.1712 86.1275 41.0662 86.223 41.0662C86.3567 41.0662 86.5 41.1617 86.6528 41.3526C86.8055 41.5436 86.9392 41.7537 87.0538 41.9829C87.1684 42.2121 87.2257 42.384 87.2257 42.4986C87.2257 42.6705 87.092 42.8614 86.8246 43.0715C86.5573 43.2816 86.1848 43.4822 85.7074 43.6731C85.249 43.8641 84.7047 44.0265 84.0744 44.1602C83.4633 44.2747 82.7948 44.332 82.0691 44.332ZM77.6286 35.5944H85.0771C85.0771 34.0856 84.7906 32.9587 84.2177 32.2139C83.6447 31.4499 82.7853 31.068 81.6393 31.068C80.3979 31.068 79.443 31.4499 78.7745 32.2139C78.1061 32.9587 77.7241 34.0856 77.6286 35.5944ZM92.4988 44.2175C91.7348 44.2175 91.3528 44.0074 91.3528 43.5872V33.5317C91.3528 32.7486 91.3242 32.0993 91.2669 31.5836C91.2096 31.068 91.1523 30.6764 91.095 30.409C91.0377 30.1226 91.0091 29.9602 91.0091 29.922C91.0091 29.7883 91.0664 29.6833 91.181 29.6069C91.3146 29.5114 91.4674 29.4446 91.6393 29.4064C91.8112 29.3491 91.9831 29.3109 92.155 29.2918C92.3269 29.2727 92.4606 29.2631 92.5561 29.2631C92.7853 29.2631 92.9571 29.3682 93.0717 29.5782C93.2054 29.7883 93.3009 30.0462 93.3582 30.3517C93.4346 30.6382 93.5015 30.9056 93.5588 31.1539C94.0362 30.6 94.6474 30.1035 95.3922 29.6642C96.1562 29.2249 96.9965 29.0053 97.9133 29.0053C98.3907 29.0053 98.8873 29.0721 99.403 29.2058C99.9377 29.3204 100.434 29.5496 100.893 29.8934C101.37 30.2372 101.743 30.7337 102.01 31.3831C102.564 30.7337 103.232 30.1799 104.015 29.7215C104.817 29.244 105.667 29.0053 106.565 29.0053C107.023 29.0053 107.51 29.0721 108.026 29.2058C108.542 29.3204 109.029 29.5401 109.487 29.8647C109.965 30.1894 110.347 30.6573 110.633 31.2685C110.92 31.8796 111.063 32.6722 111.063 33.6463V43.5872C111.063 44.0074 110.681 44.2175 109.917 44.2175H109.802C109.038 44.2175 108.656 44.0074 108.656 43.5872V33.8755C108.656 33.0351 108.427 32.3667 107.969 31.8701C107.51 31.3544 106.823 31.0966 105.906 31.0966C105.39 31.0966 104.913 31.2016 104.474 31.4117C104.054 31.6218 103.672 31.8701 103.328 32.1566C103.003 32.424 102.745 32.6722 102.554 32.9014C102.382 33.1306 102.277 33.2643 102.239 33.3025L102.21 32.3285C102.306 32.5386 102.363 32.7677 102.382 33.016C102.401 33.2452 102.411 33.4648 102.411 33.6749V43.5872C102.411 44.0074 102.029 44.2175 101.265 44.2175H101.151C100.387 44.2175 100.005 44.0074 100.005 43.5872V33.8755C100.005 33.0351 99.7754 32.3667 99.317 31.8701C98.8587 31.3544 98.1711 31.0966 97.2544 31.0966C96.7387 31.0966 96.2612 31.2016 95.822 31.4117C95.4018 31.6027 95.0294 31.8319 94.7047 32.0993C94.3991 32.3476 94.1604 32.5768 93.9885 32.7868C93.8357 32.9778 93.7593 33.0733 93.7593 33.0733V43.5872C93.7593 44.0074 93.3773 44.2175 92.6134 44.2175H92.4988ZM117.212 50.119C116.582 50.119 116.267 49.9662 116.267 49.6606C116.267 49.6224 116.267 49.5747 116.267 49.5174C116.286 49.4792 116.334 49.3646 116.41 49.1736L119.189 42.4413V44.3034L113.803 29.9793C113.784 29.9411 113.765 29.8838 113.746 29.8074C113.727 29.731 113.717 29.6642 113.717 29.6069C113.717 29.2822 114.128 29.1199 114.949 29.1199H115.178C115.465 29.1199 115.713 29.1581 115.923 29.2345C116.133 29.2918 116.267 29.4064 116.324 29.5782L119.246 37.3419C119.418 37.8194 119.581 38.3064 119.733 38.803C119.886 39.2995 120.029 39.777 120.163 40.2354H120.22C120.373 39.7961 120.526 39.3186 120.679 38.803C120.831 38.2682 120.994 37.7812 121.166 37.3419L124.031 29.5782C124.088 29.4064 124.222 29.2918 124.432 29.2345C124.642 29.1581 124.9 29.1199 125.205 29.1199H125.291C126.055 29.1199 126.437 29.2822 126.437 29.6069C126.437 29.7024 126.408 29.8361 126.351 30.008L118.988 49.5174C118.912 49.7274 118.75 49.8802 118.501 49.9757C118.272 50.0712 117.986 50.119 117.642 50.119H117.212Z" fill="white"/>
</g>
<defs>
<filter id="filter0_d_357_8286" x="0.0482616" y="0.198164" width="76.6437" height="66.6696" filterUnits="userSpaceOnUse" color-interpolation-filters="sRGB">
<feFlood flood-opacity="0" result="BackgroundImageFix"/>
<feColorMatrix in="SourceAlpha" type="matrix" values="0 0 0 0 0 0 0 0 0 0 0 0 0 0 0 0 0 0 127 0" result="hardAlpha"/>
<feOffset/>
<feGaussianBlur stdDeviation="2.93827"/>
<feComposite in2="hardAlpha" operator="out"/>
<feColorMatrix type="matrix" values="0 0 0 0 0.0313726 0 0 0 0 0.764706 0 0 0 0 0.435294 0 0 0 0.5 0"/>
<feBlend mode="normal" in2="BackgroundImageFix" result="effect1_dropShadow_357_8286"/>
<feBlend mode="normal" in="SourceGraphic" in2="effect1_dropShadow_357_8286" result="shape"/>
</filter>
<filter id="filter1_d_357_8286" x="13.9604" y="18.1816" width="46.0773" height="32.1505" filterUnits="userSpaceOnUse" color-interpolation-filters="sRGB">
<feFlood flood-opacity="0" result="BackgroundImageFix"/>
<feColorMatrix in="SourceAlpha" type="matrix" values="0 0 0 0 0 0 0 0 0 0 0 0 0 0 0 0 0 0 127 0" result="hardAlpha"/>
<feOffset/>
<feGaussianBlur stdDeviation="2.93827"/>
<feComposite in2="hardAlpha" operator="out"/>
<feColorMatrix type="matrix" values="0 0 0 0 1 0 0 0 0 1 0 0 0 0 1 0 0 0 0.5 0"/>
<feBlend mode="normal" in2="BackgroundImageFix" result="effect1_dropShadow_357_8286"/>
<feBlend mode="normal" in="SourceGraphic" in2="effect1_dropShadow_357_8286" result="shape"/>
</filter>
<filter id="filter2_d_357_8286" x="69.1733" y="23.1288" width="63.1398" height="32.8669" filterUnits="userSpaceOnUse" color-interpolation-filters="sRGB">
<feFlood flood-opacity="0" result="BackgroundImageFix"/>
<feColorMatrix in="SourceAlpha" type="matrix" values="0 0 0 0 0 0 0 0 0 0 0 0 0 0 0 0 0 0 127 0" result="hardAlpha"/>
<feOffset/>
<feGaussianBlur stdDeviation="2.93827"/>
<feComposite in2="hardAlpha" operator="out"/>
<feColorMatrix type="matrix" values="0 0 0 0 1 0 0 0 0 1 0 0 0 0 1 0 0 0 0.5 0"/>
<feBlend mode="normal" in2="BackgroundImageFix" result="effect1_dropShadow_357_8286"/>
<feBlend mode="normal" in="SourceGraphic" in2="effect1_dropShadow_357_8286" result="shape"/>
</filter>
</defs>
</svg>
